<svg xmlns="http://www.w3.org/2000/svg" xmlns:xlink="http://www.w3.org/1999/xlink" version="1.1" width="590" height="716.1" viewBox="23.9 105.4 590 716.1"><g><g transform="translate(277.5,105.5)"><g><g>
<path d="M280,0H0v181h280V0L280,0z" stroke="#000000" stroke-dasharray="none" fill="#FFFFFF"/>
<rect x="12.2" y="8.3" width="255.5" height="164.5" fill="none"/>
<circle fill="none" cx="140" cy="0" r="0.1"/>
<circle fill="none" cx="209.4" cy="0" r="0.1"/>
<circle fill="none" cx="280" cy="45.6" r="0.1"/>
<circle fill="none" cx="280" cy="90.5" r="0.1"/>
<circle fill="none" cx="280" cy="135.4" r="0.1"/>
<circle fill="none" cx="209.4" cy="181" r="0.1"/>
<circle fill="none" cx="140" cy="181" r="0.1"/>
<circle fill="none" cx="70.6" cy="181" r="0.1"/>
<circle fill="none" cx="0" cy="135.4" r="0.1"/>
<circle fill="none" cx="0" cy="90.5" r="0.1"/>
<circle fill="none" cx="0" cy="45.6" r="0.1"/>
<circle fill="none" cx="70.6" cy="0" r="0.1"/>
</g></g><rect stroke="none" stroke-width="0" fill="#FFFFFF" x="0" y="0" width="0" height="0" transform="translate(279.9,90.4)"/><path stroke="#000000" fill="none" d=""/><text font-family="OpenSansCondensedLight" font-size="14pt" fill="black" transform="translate(279.9,90.4)"/><rect stroke-width="0" fill="none" width="255.5" height="164.5" transform="translate(12.2,8.3)"/><text font-family="OpenSansCondensedLight" font-size="14pt" fill="black" transform="translate(12.2,8.3)" text-anchor="middle"><tspan x="127.8" y="88.5">INTERFACES 102</tspan></text><path stroke="#000000" fill="none" transform="translate(12.2,8.3)" d="M 171.9 91 199.9 91"/></g><g transform="translate(77.5,321.5)"><g><g>
<path d="M182,0H0v287h182V0L182,0z" stroke="#000000" stroke-dasharray="none" fill="#FFFFFF"/>
<rect x="8" y="13.1" width="166.1" height="260.8" fill="none"/>
<circle fill="none" cx="91" cy="0" r="0.1"/>
<circle fill="none" cx="136.1" cy="0" r="0.1"/>
<circle fill="none" cx="182" cy="72.4" r="0.1"/>
<circle fill="none" cx="182" cy="143.5" r="0.1"/>
<circle fill="none" cx="182" cy="214.6" r="0.1"/>
<circle fill="none" cx="136.1" cy="287" r="0.1"/>
<circle fill="none" cx="91" cy="287" r="0.1"/>
<circle fill="none" cx="45.9" cy="287" r="0.1"/>
<circle fill="none" cx="0" cy="214.6" r="0.1"/>
<circle fill="none" cx="0" cy="143.5" r="0.1"/>
<circle fill="none" cx="0" cy="72.4" r="0.1"/>
<circle fill="none" cx="45.9" cy="0" r="0.1"/>
</g></g><rect stroke="none" stroke-width="1" fill="#FFFFFF" x="0" y="0" width="40" height="20" transform="translate(-4.2,-62.1)"/><path stroke="#000000" fill="none" d="M45.9,0 C53.4,-28.2 14.1,-13.9 21.6 -42.1"/><text font-family="OpenSansCondensedLight" font-size="14pt" fill="black" transform="translate(-4.2,-62.1)" text-anchor="middle"><tspan x="20" y="16.3">104</tspan></text><rect stroke-width="0" fill="none" width="166.1" height="260.8" transform="translate(8,13.1)"/><text font-family="OpenSansCondensedLight" font-size="14pt" fill="black" transform="translate(8,13.1)" text-anchor="middle"><tspan x="83" y="16.8">CPU</tspan></text><path stroke="#000000" fill="none" transform="translate(8,13.1)" d="M 0 0"/></g><g transform="translate(104,395)"><g><g>
<path d="M126,0H0v55h126V0L126,0z" stroke="#000000" stroke-dasharray="none" fill="#FFFFFF"/>
<rect x="5.5" y="2.5" width="115" height="50" fill="none"/>
<circle fill="none" cx="63" cy="0" r="0.1"/>
<circle fill="none" cx="94.2" cy="0" r="0.1"/>
<circle fill="none" cx="126" cy="13.9" r="0.1"/>
<circle fill="none" cx="126" cy="27.5" r="0.1"/>
<circle fill="none" cx="126" cy="41.1" r="0.1"/>
<circle fill="none" cx="94.2" cy="55" r="0.1"/>
<circle fill="none" cx="63" cy="55" r="0.1"/>
<circle fill="none" cx="31.8" cy="55" r="0.1"/>
<circle fill="none" cx="0" cy="41.1" r="0.1"/>
<circle fill="none" cx="0" cy="27.5" r="0.1"/>
<circle fill="none" cx="0" cy="13.9" r="0.1"/>
<circle fill="none" cx="31.8" cy="0" r="0.1"/>
</g></g><rect stroke="none" stroke-width="1" fill="#FFFFFF" x="0" y="0" width="40" height="20" transform="translate(-80.1,17.4)"/><path stroke="#000000" fill="none" d="M0,27.5 C-17,10.5 -23.1,44.5 -40.1 27.4"/><text font-family="OpenSansCondensedLight" font-size="14pt" fill="black" transform="translate(-80.1,17.4)" text-anchor="middle"><tspan x="20" y="16.3">106</tspan></text><rect stroke-width="0" fill="none" width="115" height="50" transform="translate(5.5,2.5)"/><text font-family="OpenSansCondensedLight" font-size="14pt" fill="black" transform="translate(5.5,2.5)" text-anchor="middle"><tspan x="57.5" y="31.3">MEMORY</tspan></text><path stroke="#000000" fill="none" transform="translate(5.5,2.5)" d="M 0 0"/></g><g transform="translate(104,450)"><g><g>
<path d="M126,0H0v55h126V0L126,0z" stroke="#000000" stroke-dasharray="none" fill="#FFFFFF"/>
<rect x="5.5" y="2.5" width="115" height="50" fill="none"/>
<circle fill="none" cx="63" cy="0" r="0.1"/>
<circle fill="none" cx="94.2" cy="0" r="0.1"/>
<circle fill="none" cx="126" cy="13.9" r="0.1"/>
<circle fill="none" cx="126" cy="27.5" r="0.1"/>
<circle fill="none" cx="126" cy="41.1" r="0.1"/>
<circle fill="none" cx="94.2" cy="55" r="0.1"/>
<circle fill="none" cx="63" cy="55" r="0.1"/>
<circle fill="none" cx="31.8" cy="55" r="0.1"/>
<circle fill="none" cx="0" cy="41.1" r="0.1"/>
<circle fill="none" cx="0" cy="27.5" r="0.1"/>
<circle fill="none" cx="0" cy="13.9" r="0.1"/>
<circle fill="none" cx="31.8" cy="0" r="0.1"/>
</g></g><rect stroke="none" stroke-width="1" fill="#FFFFFF" x="0" y="0" width="40" height="20" transform="translate(-80.1,17.4)"/><path stroke="#000000" fill="none" d="M0,27.5 C-17,10.5 -23.1,44.5 -40.1 27.4"/><text font-family="OpenSansCondensedLight" font-size="14pt" fill="black" transform="translate(-80.1,17.4)" text-anchor="middle"><tspan x="20" y="16.3">108</tspan></text><rect stroke-width="0" fill="none" width="115" height="50" transform="translate(5.5,2.5)"/><text font-family="OpenSansCondensedLight" font-size="14pt" fill="black" transform="translate(5.5,2.5)" text-anchor="middle"><tspan x="57.5" y="31.3">PROCESSOR(S)</tspan></text><path stroke="#000000" fill="none" transform="translate(5.5,2.5)" d="M 0 0"/></g><g transform="translate(106,676)"><g><g>
<g stroke="#000000" stroke-dasharray="none" fill="#FFFFFF">
    <polygon points="484,20.1 404.4,40.1 404.8,40.1 404.8,40 80.1,40 0,20 79.7,0.1 403.9,0.1 403.7,0.1"/>
</g>
<rect x="81.9" y="2.8" fill="none" width="320.4" height="34.6"/>
<ellipse fill="none" cx="241.4" cy="0.1" rx="0" ry="0"/>
<ellipse fill="none" cx="349.6" cy="0.1" rx="0" ry="0"/>
<ellipse fill="none" cx="438.9" cy="8.8" rx="0" ry="0"/>
<ellipse fill="none" cx="483.4" cy="19.9" rx="0" ry="0"/>
<ellipse fill="none" cx="445.2" cy="29.8" rx="0" ry="0"/>
<ellipse fill="none" cx="348.6" cy="40.1" rx="0" ry="0"/>
<ellipse fill="none" cx="240.6" cy="40.1" rx="0" ry="0"/>
<ellipse fill="none" cx="132.7" cy="40.1" rx="0" ry="0"/>
<ellipse fill="none" cx="41.5" cy="30.2" rx="0" ry="0"/>
<ellipse fill="none" cx="0.2" cy="19.9" rx="0" ry="0"/>
<ellipse fill="none" cx="44.3" cy="8.9" rx="0" ry="0"/>
<ellipse fill="none" cx="133.3" cy="0.2" rx="0" ry="0"/>
</g></g><rect stroke="none" stroke-width="1" fill="#FFFFFF" x="0" y="0" width="40" height="20" transform="translate(221.4,-69.9)"/><path stroke="#000000" fill="none" d="M241.4,0.1 C262.6,-21.2 220.2,-28.7 241.4 -49.9"/><text font-family="OpenSansCondensedLight" font-size="14pt" fill="black" transform="translate(221.4,-69.9)" text-anchor="middle"><tspan x="20" y="16.3">110</tspan></text><rect stroke-width="0" fill="none" width="320.4" height="34.6" transform="translate(81.9,2.8)"/><text font-family="OpenSansCondensedLight" font-size="14pt" fill="black" transform="translate(81.9,2.8)" text-anchor="middle"><tspan x="160.2" y="23.6"> </tspan></text><path stroke="#000000" fill="none" transform="translate(81.9,2.8)" d="M 0 0"/></g><g><path stroke="black" stroke-dasharray="none" d="M 487 286 493 677" fill="none"/><path fill="black" stroke="black" d="" transform="translate(487,286) scale(1,1) rotate(89.1)"/><path fill="black" stroke="black" d="" transform="translate(493,677) scale(1,1) rotate(-90.9)"/><g><g label-idx="0" cursor="move" transform="translate(490, 481.5)"><rect fill="white" rx="3" ry="3" x="0" y="0" width="0" height="0"/><text text-anchor="middle" font-size="14pt" font-family="OpenSansCondensedLight" y="0.8em" display="none" xml:space="preserve" transform="translate(0,0)"/></g></g></g><g><path stroke="black" stroke-dasharray="none" d="M 195 505 195 678" fill="none"/><path fill="black" stroke="black" d="" transform="translate(195,505) scale(1,1) rotate(-270)"/><path fill="black" stroke="black" d="" transform="translate(195,678) scale(1,1) rotate(-90)"/><g><g label-idx="0" cursor="move" transform="translate(195, 591.5)"><rect fill="white" rx="3" ry="3" x="0" y="0" width="0" height="0"/><text text-anchor="middle" font-size="14pt" font-family="OpenSansCondensedLight" y="0.8em" display="none" xml:space="preserve" transform="translate(0,0)"/></g></g></g></g><defs/></svg>