<svg xmlns="http://www.w3.org/2000/svg" xmlns:xlink="http://www.w3.org/1999/xlink" version="1.1" width="895" height="527.1" viewBox="19.2 22.2 895 527.1"><g><g transform="translate(296,269.4)"><g><g>
<g fill="#FFFFFF">
    <rect y="0" width="561" height="34"/>
</g>
<g stroke="#000000" stroke-dasharray="none">
    <line fill="none" stroke-linejoin="round" x1="0" y1="34" x2="554.6" y2="34"/>
</g>
<rect x="22" y="1.3" fill="none" width="517.1" height="31.3"/>
<circle fill="none" cx="298.1" cy="34" r="0.1"/>
<circle fill="none" cx="392.5" cy="34" r="0.1"/>
<circle fill="none" cx="486.9" cy="34" r="0.1"/>
<circle fill="none" cx="534.1" cy="34" r="0.1"/>
<circle fill="none" cx="439.7" cy="34" r="0.1"/>
<circle fill="none" cx="345.2" cy="34" r="0.1"/>
<circle fill="none" cx="250.8" cy="34" r="0.1"/>
<circle fill="none" cx="156.4" cy="34" r="0.1"/>
<circle fill="none" cx="62" cy="34" r="0.1"/>
<circle fill="none" cx="14.8" cy="34" r="0.1"/>
<circle fill="none" cx="109.2" cy="34" r="0.1"/>
<circle fill="none" cx="203.6" cy="34" r="0.1"/>
</g></g><rect stroke="none" stroke-width="1" fill="#FFFFFF" x="0" y="0" width="40" height="20" transform="translate(355.1,75.9)"/><path stroke="#000000" fill="none" d="M345.2,34 C337.7,62 376.9,47.9 369.4 75.9"/><text font-family="OpenSansCondensedLight" font-size="14pt" fill="black" transform="translate(355.1,75.9)" text-anchor="middle"><tspan x="20" y="16.3">202</tspan></text><rect stroke-width="0" fill="none" width="517.1" height="31.3" transform="translate(22,1.3)"/><text font-family="OpenSansCondensedLight" font-size="14pt" fill="black" transform="translate(22,1.3)" text-anchor="middle"><tspan x="258.5" y="22">BUS</tspan></text><path stroke="#000000" fill="none" transform="translate(22,1.3)" d="M 0 0"/></g><g transform="translate(638,468)"><g><g>
<path d="M140,0H0v57h140V0L140,0z" stroke="#000000" stroke-dasharray="none" fill="#FFFFFF"/>
<rect x="6.1" y="2.6" width="127.8" height="51.8" fill="none"/>
<circle fill="none" cx="70" cy="0" r="0.1"/>
<circle fill="none" cx="104.7" cy="0" r="0.1"/>
<circle fill="none" cx="140" cy="14.4" r="0.1"/>
<circle fill="none" cx="140" cy="28.5" r="0.1"/>
<circle fill="none" cx="140" cy="42.6" r="0.1"/>
<circle fill="none" cx="104.7" cy="57" r="0.1"/>
<circle fill="none" cx="70" cy="57" r="0.1"/>
<circle fill="none" cx="35.3" cy="57" r="0.1"/>
<circle fill="none" cx="0" cy="42.6" r="0.1"/>
<circle fill="none" cx="0" cy="28.5" r="0.1"/>
<circle fill="none" cx="0" cy="14.4" r="0.1"/>
<circle fill="none" cx="35.3" cy="0" r="0.1"/>
</g></g><rect stroke="none" stroke-width="1" fill="#FFFFFF" x="0" y="0" width="40" height="20" transform="translate(179.9,18.4)"/><path stroke="#000000" fill="none" d="M140,28.5 C157,45.4 162.9,11.5 179.9 28.4"/><text font-family="OpenSansCondensedLight" font-size="14pt" fill="black" transform="translate(179.9,18.4)" text-anchor="middle"><tspan x="20" y="16.3">204</tspan></text><rect stroke-width="0" fill="none" width="127.8" height="51.8" transform="translate(6.1,2.6)"/><text font-family="OpenSansCondensedLight" font-size="14pt" fill="black" transform="translate(6.1,2.6)" text-anchor="middle"><tspan x="63.9" y="32.2">PROCESSOR</tspan></text><path stroke="#000000" fill="none" transform="translate(6.1,2.6)" d="M 0 0"/></g><g transform="translate(422,470)"><g><g>
<path d="M140,0H0v57h140V0L140,0z" stroke="#000000" stroke-dasharray="none" fill="#FFFFFF"/>
<rect x="6.1" y="2.6" width="127.8" height="51.8" fill="none"/>
<circle fill="none" cx="70" cy="0" r="0.1"/>
<circle fill="none" cx="104.7" cy="0" r="0.1"/>
<circle fill="none" cx="140" cy="14.4" r="0.1"/>
<circle fill="none" cx="140" cy="28.5" r="0.1"/>
<circle fill="none" cx="140" cy="42.6" r="0.1"/>
<circle fill="none" cx="104.7" cy="57" r="0.1"/>
<circle fill="none" cx="70" cy="57" r="0.1"/>
<circle fill="none" cx="35.3" cy="57" r="0.1"/>
<circle fill="none" cx="0" cy="42.6" r="0.1"/>
<circle fill="none" cx="0" cy="28.5" r="0.1"/>
<circle fill="none" cx="0" cy="14.4" r="0.1"/>
<circle fill="none" cx="35.3" cy="0" r="0.1"/>
</g></g><rect stroke="none" stroke-width="1" fill="#FFFFFF" x="0" y="0" width="40" height="20" transform="translate(-80.1,18.4)"/><path stroke="#000000" fill="none" d="M0,28.5 C-17,11.5 -23.1,45.5 -40.1 28.4"/><text font-family="OpenSansCondensedLight" font-size="14pt" fill="black" transform="translate(-80.1,18.4)" text-anchor="middle"><tspan x="20" y="16.3">206</tspan></text><rect stroke-width="0" fill="none" width="127.8" height="51.8" transform="translate(6.1,2.6)"/><text font-family="OpenSansCondensedLight" font-size="14pt" fill="black" transform="translate(6.1,2.6)" text-anchor="middle"><tspan x="63.9" y="32.2">CACHE</tspan></text><path stroke="#000000" fill="none" transform="translate(6.1,2.6)" d="M 0 0"/></g><g><path stroke="black" stroke-dasharray="none" d="M 570 496 630 496" fill="none"/><path fill="black" stroke="black" d="M 8 0 L 0 4 L 8 8 z" transform="translate(562,492) scale(1,1) rotate(0)"/><path fill="black" stroke="black" d="M 8 0 L 0 4 L 8 8 z" transform="translate(638,500) scale(1,1) rotate(-180)"/><g><g label-idx="0" cursor="move" transform="translate(600, 496)"><rect fill="white" rx="3" ry="3" x="0" y="0" width="0" height="0"/><text text-anchor="middle" font-size="14pt" font-family="OpenSansCondensedLight" y="0.8em" display="none" xml:space="preserve" transform="translate(0,0)"/></g></g></g><g><path stroke="black" stroke-dasharray="none" d="M 599 311 599 486" fill="none"/><path fill="black" stroke="black" d="M 8 0 L 0 4 L 8 8 z" transform="translate(603,303) scale(1,1) rotate(-270)"/><path fill="black" stroke="black" d="M 8 0 L 0 4 L 8 8 z" transform="translate(595,494) scale(1,1) rotate(-90)"/><g><g label-idx="0" cursor="move" transform="translate(599, 398.5)"><rect fill="white" rx="3" ry="3" x="0" y="0" width="0" height="0"/><text text-anchor="middle" font-size="14pt" font-family="OpenSansCondensedLight" y="0.8em" display="none" xml:space="preserve" transform="translate(0,0)"/></g></g></g><g transform="translate(27,357)"><g><g>
<path d="M145,0H0v69h145V0L145,0z" stroke="#000000" stroke-dasharray="none" fill="#FFFFFF"/>
<rect x="6.3" y="3.1" width="132.3" height="62.7" fill="none"/>
<circle fill="none" cx="72.5" cy="0" r="0.1"/>
<circle fill="none" cx="108.4" cy="0" r="0.1"/>
<circle fill="none" cx="145" cy="17.4" r="0.1"/>
<circle fill="none" cx="145" cy="34.5" r="0.1"/>
<circle fill="none" cx="145" cy="51.6" r="0.1"/>
<circle fill="none" cx="108.4" cy="69" r="0.1"/>
<circle fill="none" cx="72.5" cy="69" r="0.1"/>
<circle fill="none" cx="36.6" cy="69" r="0.1"/>
<circle fill="none" cx="0" cy="51.6" r="0.1"/>
<circle fill="none" cx="0" cy="34.5" r="0.1"/>
<circle fill="none" cx="0" cy="17.4" r="0.1"/>
<circle fill="none" cx="36.6" cy="0" r="0.1"/>
</g></g><rect stroke="none" stroke-width="0" fill="#FFFFFF" x="0" y="0" width="0" height="0" transform="translate(144.9,34.4)"/><path stroke="#000000" fill="none" d=""/><text font-family="OpenSansCondensedLight" font-size="14pt" fill="black" transform="translate(144.9,34.4)"/><rect stroke-width="0" fill="none" width="132.3" height="62.7" transform="translate(6.3,3.1)"/><text font-family="OpenSansCondensedLight" font-size="14pt" fill="black" transform="translate(6.3,3.1)" text-anchor="middle"><tspan x="66.2" y="16.7">COMMUNICATION</tspan><tspan x="66.2" y="37.7">INTERFACES</tspan><tspan x="66.2" y="58.7">208</tspan></text><path stroke="#000000" fill="none" transform="translate(6.3,3.1)" d="M 52.2 61 80.2 61"/></g><g><path stroke="black" stroke-dasharray="none" d="M 180 390 370 390 370 311" fill="none"/><path fill="black" stroke="black" d="M 8 0 L 0 4 L 8 8 z" transform="translate(172,386) scale(1,1) rotate(0)"/><path fill="black" stroke="black" d="M 8 0 L 0 4 L 8 8 z" transform="translate(374,303) scale(1,1) rotate(-270)"/><g><g label-idx="0" cursor="move" transform="translate(314.5, 390)"><rect fill="white" rx="3" ry="3" x="0" y="0" width="0" height="0"/><text text-anchor="middle" font-size="14pt" font-family="OpenSansCondensedLight" y="0.8em" display="none" xml:space="preserve" transform="translate(0,0)"/></g></g></g><g transform="translate(27,211)"><g><g>
<path d="M145,0H0v69h145V0L145,0z" stroke="#000000" stroke-dasharray="none" fill="#FFFFFF"/>
<rect x="6.3" y="3.1" width="132.3" height="62.7" fill="none"/>
<circle fill="none" cx="72.5" cy="0" r="0.1"/>
<circle fill="none" cx="108.4" cy="0" r="0.1"/>
<circle fill="none" cx="145" cy="17.4" r="0.1"/>
<circle fill="none" cx="145" cy="34.5" r="0.1"/>
<circle fill="none" cx="145" cy="51.6" r="0.1"/>
<circle fill="none" cx="108.4" cy="69" r="0.1"/>
<circle fill="none" cx="72.5" cy="69" r="0.1"/>
<circle fill="none" cx="36.6" cy="69" r="0.1"/>
<circle fill="none" cx="0" cy="51.6" r="0.1"/>
<circle fill="none" cx="0" cy="34.5" r="0.1"/>
<circle fill="none" cx="0" cy="17.4" r="0.1"/>
<circle fill="none" cx="36.6" cy="0" r="0.1"/>
</g></g><rect stroke="none" stroke-width="0" fill="#FFFFFF" x="0" y="0" width="0" height="0" transform="translate(144.9,34.4)"/><path stroke="#000000" fill="none" d=""/><text font-family="OpenSansCondensedLight" font-size="14pt" fill="black" transform="translate(144.9,34.4)"/><rect stroke-width="0" fill="none" width="132.3" height="62.7" transform="translate(6.3,3.1)"/><text font-family="OpenSansCondensedLight" font-size="14pt" fill="black" transform="translate(6.3,3.1)" text-anchor="middle"><tspan x="66.2" y="27.2">OUTPUT</tspan><tspan x="66.2" y="48.2">DEVICE 210</tspan></text><path stroke="#000000" fill="none" transform="translate(6.3,3.1)" d="M 88.7 50 116.7 50"/></g><g><path stroke="black" stroke-dasharray="none" d="M 180 250 309 250 309 295" fill="none"/><path fill="black" stroke="black" d="M 8 0 L 0 4 L 8 8 z" transform="translate(172,246) scale(1,1) rotate(0)"/><path fill="black" stroke="black" d="M 8 0 L 0 4 L 8 8 z" transform="translate(305,303) scale(1,1) rotate(-90)"/><g><g label-idx="0" cursor="move" transform="translate(267, 250)"><rect fill="white" rx="3" ry="3" x="0" y="0" width="0" height="0"/><text text-anchor="middle" font-size="14pt" font-family="OpenSansCondensedLight" y="0.8em" display="none" xml:space="preserve" transform="translate(0,0)"/></g></g></g><g transform="translate(25,113)"><g><g>
<path d="M145,0H0v69h145V0L145,0z" stroke="#000000" stroke-dasharray="none" fill="#FFFFFF"/>
<rect x="6.3" y="3.1" width="132.3" height="62.7" fill="none"/>
<circle fill="none" cx="72.5" cy="0" r="0.1"/>
<circle fill="none" cx="108.4" cy="0" r="0.1"/>
<circle fill="none" cx="145" cy="17.4" r="0.1"/>
<circle fill="none" cx="145" cy="34.5" r="0.1"/>
<circle fill="none" cx="145" cy="51.6" r="0.1"/>
<circle fill="none" cx="108.4" cy="69" r="0.1"/>
<circle fill="none" cx="72.5" cy="69" r="0.1"/>
<circle fill="none" cx="36.6" cy="69" r="0.1"/>
<circle fill="none" cx="0" cy="51.6" r="0.1"/>
<circle fill="none" cx="0" cy="34.5" r="0.1"/>
<circle fill="none" cx="0" cy="17.4" r="0.1"/>
<circle fill="none" cx="36.6" cy="0" r="0.1"/>
</g></g><rect stroke="none" stroke-width="0" fill="#FFFFFF" x="0" y="0" width="0" height="0" transform="translate(144.9,34.4)"/><path stroke="#000000" fill="none" d=""/><text font-family="OpenSansCondensedLight" font-size="14pt" fill="black" transform="translate(144.9,34.4)"/><rect stroke-width="0" fill="none" width="132.3" height="62.7" transform="translate(6.3,3.1)"/><text font-family="OpenSansCondensedLight" font-size="14pt" fill="black" transform="translate(6.3,3.1)" text-anchor="middle"><tspan x="66.2" y="27.2">INPUT DEVICE</tspan><tspan x="66.2" y="48.2">212</tspan></text><path stroke="#000000" fill="none" transform="translate(6.3,3.1)" d="M 52.2 50 80.2 50"/></g><g><path stroke="black" stroke-dasharray="none" d="M 178 149 341 149 341 292" fill="none"/><path fill="black" stroke="black" d="M 8 0 L 0 4 L 8 8 z" transform="translate(170,145) scale(1,1) rotate(0)"/><path fill="black" stroke="black" d="M 8 0 L 0 4 L 8 8 z" transform="translate(337,300) scale(1,1) rotate(-90)"/><g><g label-idx="0" cursor="move" transform="translate(331, 149)"><rect fill="white" rx="3" ry="3" x="0" y="0" width="0" height="0"/><text text-anchor="middle" font-size="14pt" font-family="OpenSansCondensedLight" y="0.8em" display="none" xml:space="preserve" transform="translate(0,0)"/></g></g></g><g transform="translate(365,179)"><g><g>
<path d="M107,0H0v65h107V0L107,0z" stroke="#000000" stroke-dasharray="none" fill="#FFFFFF"/>
<rect x="4.7" y="3" width="97.6" height="59.1" fill="none"/>
<circle fill="none" cx="53.5" cy="0" r="0.1"/>
<circle fill="none" cx="80" cy="0" r="0.1"/>
<circle fill="none" cx="107" cy="16.4" r="0.1"/>
<circle fill="none" cx="107" cy="32.5" r="0.1"/>
<circle fill="none" cx="107" cy="48.6" r="0.1"/>
<circle fill="none" cx="80" cy="65" r="0.1"/>
<circle fill="none" cx="53.5" cy="65" r="0.1"/>
<circle fill="none" cx="27" cy="65" r="0.1"/>
<circle fill="none" cx="0" cy="48.6" r="0.1"/>
<circle fill="none" cx="0" cy="32.5" r="0.1"/>
<circle fill="none" cx="0" cy="16.4" r="0.1"/>
<circle fill="none" cx="27" cy="0" r="0.1"/>
</g></g><rect stroke="none" stroke-width="0" fill="#FFFFFF" x="0" y="0" width="0" height="0" transform="translate(106.9,32.4)"/><path stroke="#000000" fill="none" d=""/><text font-family="OpenSansCondensedLight" font-size="14pt" fill="black" transform="translate(106.9,32.4)"/><rect stroke-width="0" fill="none" width="97.6" height="59.1" transform="translate(4.7,3)"/><text font-family="OpenSansCondensedLight" font-size="14pt" fill="black" transform="translate(4.7,3)" text-anchor="middle"><tspan x="48.8" y="25.3">MEMORY</tspan><tspan x="48.8" y="46.3">214</tspan></text><path stroke="#000000" fill="none" transform="translate(4.7,3)" d="M 34.8 48 62.8 48"/></g><g><path stroke="black" stroke-dasharray="none" d="M 419 252 419 293" fill="none"/><path fill="black" stroke="black" d="M 8 0 L 0 4 L 8 8 z" transform="translate(423,244) scale(1,1) rotate(-270)"/><path fill="black" stroke="black" d="M 8 0 L 0 4 L 8 8 z" transform="translate(415,301) scale(1,1) rotate(-90)"/><g><g label-idx="0" cursor="move" transform="translate(419, 272.5)"><rect fill="white" rx="3" ry="3" x="0" y="0" width="0" height="0"/><text text-anchor="middle" font-size="14pt" font-family="OpenSansCondensedLight" y="0.8em" display="none" xml:space="preserve" transform="translate(0,0)"/></g></g></g><g transform="translate(488,180)"><g><g>
<path d="M107,0H0v65h107V0L107,0z" stroke="#000000" stroke-dasharray="none" fill="#FFFFFF"/>
<rect x="4.7" y="3" width="97.6" height="59.1" fill="none"/>
<circle fill="none" cx="53.5" cy="0" r="0.1"/>
<circle fill="none" cx="80" cy="0" r="0.1"/>
<circle fill="none" cx="107" cy="16.4" r="0.1"/>
<circle fill="none" cx="107" cy="32.5" r="0.1"/>
<circle fill="none" cx="107" cy="48.6" r="0.1"/>
<circle fill="none" cx="80" cy="65" r="0.1"/>
<circle fill="none" cx="53.5" cy="65" r="0.1"/>
<circle fill="none" cx="27" cy="65" r="0.1"/>
<circle fill="none" cx="0" cy="48.6" r="0.1"/>
<circle fill="none" cx="0" cy="32.5" r="0.1"/>
<circle fill="none" cx="0" cy="16.4" r="0.1"/>
<circle fill="none" cx="27" cy="0" r="0.1"/>
</g></g><rect stroke="none" stroke-width="0" fill="#FFFFFF" x="0" y="0" width="0" height="0" transform="translate(106.9,32.4)"/><path stroke="#000000" fill="none" d=""/><text font-family="OpenSansCondensedLight" font-size="14pt" fill="black" transform="translate(106.9,32.4)"/><rect stroke-width="0" fill="none" width="97.6" height="59.1" transform="translate(4.7,3)"/><text font-family="OpenSansCondensedLight" font-size="14pt" fill="black" transform="translate(4.7,3)" text-anchor="middle"><tspan x="48.8" y="35.8">ROM 216</tspan></text><path stroke="#000000" fill="none" transform="translate(4.7,3)" d="M 58.4 38 86.4 38"/></g><g><path stroke="black" stroke-dasharray="none" d="M 542 253 542 294" fill="none"/><path fill="black" stroke="black" d="M 8 0 L 0 4 L 8 8 z" transform="translate(546,245) scale(1,1) rotate(-270)"/><path fill="black" stroke="black" d="M 8 0 L 0 4 L 8 8 z" transform="translate(538,302) scale(1,1) rotate(-90)"/><g><g label-idx="0" cursor="move" transform="translate(542, 273.5)"><rect fill="white" rx="3" ry="3" x="0" y="0" width="0" height="0"/><text text-anchor="middle" font-size="14pt" font-family="OpenSansCondensedLight" y="0.8em" display="none" xml:space="preserve" transform="translate(0,0)"/></g></g></g><g transform="translate(614,180)"><g><g>
<path d="M107,0H0v65h107V0L107,0z" stroke="#000000" stroke-dasharray="none" fill="#FFFFFF"/>
<rect x="4.7" y="3" width="97.6" height="59.1" fill="none"/>
<circle fill="none" cx="53.5" cy="0" r="0.1"/>
<circle fill="none" cx="80" cy="0" r="0.1"/>
<circle fill="none" cx="107" cy="16.4" r="0.1"/>
<circle fill="none" cx="107" cy="32.5" r="0.1"/>
<circle fill="none" cx="107" cy="48.6" r="0.1"/>
<circle fill="none" cx="80" cy="65" r="0.1"/>
<circle fill="none" cx="53.5" cy="65" r="0.1"/>
<circle fill="none" cx="27" cy="65" r="0.1"/>
<circle fill="none" cx="0" cy="48.6" r="0.1"/>
<circle fill="none" cx="0" cy="32.5" r="0.1"/>
<circle fill="none" cx="0" cy="16.4" r="0.1"/>
<circle fill="none" cx="27" cy="0" r="0.1"/>
</g></g><rect stroke="none" stroke-width="0" fill="#FFFFFF" x="0" y="0" width="0" height="0" transform="translate(106.9,32.4)"/><path stroke="#000000" fill="none" d=""/><text font-family="OpenSansCondensedLight" font-size="14pt" fill="black" transform="translate(106.9,32.4)"/><rect stroke-width="0" fill="none" width="97.6" height="59.1" transform="translate(4.7,3)"/><text font-family="OpenSansCondensedLight" font-size="14pt" fill="black" transform="translate(4.7,3)" text-anchor="middle"><tspan x="48.8" y="35.8">RAM 218</tspan></text><path stroke="#000000" fill="none" transform="translate(4.7,3)" d="M 58.4 38 86.4 38"/></g><g><path stroke="black" stroke-dasharray="none" d="M 665 253 665 294" fill="none"/><path fill="black" stroke="black" d="M 8 0 L 0 4 L 8 8 z" transform="translate(669,245) scale(1,1) rotate(-270)"/><path fill="black" stroke="black" d="M 8 0 L 0 4 L 8 8 z" transform="translate(661,302) scale(1,1) rotate(-90)"/><g><g label-idx="0" cursor="move" transform="translate(665, 273.5)"><rect fill="white" rx="3" ry="3" x="0" y="0" width="0" height="0"/><text text-anchor="middle" font-size="14pt" font-family="OpenSansCondensedLight" y="0.8em" display="none" xml:space="preserve" transform="translate(0,0)"/></g></g></g><g transform="translate(738,85)"><g><g>
<path d="M94,0H0v162h94V0L94,0z" stroke="#000000" stroke-dasharray="none" fill="#FFFFFF"/>
<rect x="4.1" y="7.4" width="85.8" height="147.2" fill="none"/>
<circle fill="none" cx="47" cy="0" r="0.1"/>
<circle fill="none" cx="70.3" cy="0" r="0.1"/>
<circle fill="none" cx="94" cy="40.9" r="0.1"/>
<circle fill="none" cx="94" cy="81" r="0.1"/>
<circle fill="none" cx="94" cy="121.1" r="0.1"/>
<circle fill="none" cx="70.3" cy="162" r="0.1"/>
<circle fill="none" cx="47" cy="162" r="0.1"/>
<circle fill="none" cx="23.7" cy="162" r="0.1"/>
<circle fill="none" cx="0" cy="121.1" r="0.1"/>
<circle fill="none" cx="0" cy="81" r="0.1"/>
<circle fill="none" cx="0" cy="40.9" r="0.1"/>
<circle fill="none" cx="23.7" cy="0" r="0.1"/>
</g></g><rect stroke="none" stroke-width="1" fill="#FFFFFF" x="0" y="0" width="40" height="20" transform="translate(-26.4,-62.1)"/><path stroke="#000000" fill="none" d="M23.7,0 C31.2,-28.2 -8.1,-13.9 -0.6 -42.1"/><text font-family="OpenSansCondensedLight" font-size="14pt" fill="black" transform="translate(-26.4,-62.1)" text-anchor="middle"><tspan x="20" y="16.3">220</tspan></text><rect stroke-width="0" fill="none" width="85.8" height="147.2" transform="translate(4.1,7.4)"/><text font-family="OpenSansCondensedLight" font-size="14pt" fill="black" transform="translate(4.1,7.4)" text-anchor="middle"><tspan x="42.9" y="16.8">STORAGE</tspan><tspan x="42.9" y="37.8">DEVICE</tspan></text><path stroke="#000000" fill="none" transform="translate(4.1,7.4)" d="M 0 0"/></g><g transform="translate(747,149)"><g><g>
<path d="M75,0H0v24h75V0L75,0z" stroke="#000000" stroke-dasharray="none" fill="#FFFFFF"/>
<rect x="3.3" y="1.1" width="68.4" height="21.8" fill="none"/>
<circle fill="none" cx="37.5" cy="0" r="0.1"/>
<circle fill="none" cx="56.1" cy="0" r="0.1"/>
<circle fill="none" cx="75" cy="6.1" r="0.1"/>
<circle fill="none" cx="75" cy="12" r="0.1"/>
<circle fill="none" cx="75" cy="17.9" r="0.1"/>
<circle fill="none" cx="56.1" cy="24" r="0.1"/>
<circle fill="none" cx="37.5" cy="24" r="0.1"/>
<circle fill="none" cx="18.9" cy="24" r="0.1"/>
<circle fill="none" cx="0" cy="17.9" r="0.1"/>
<circle fill="none" cx="0" cy="12" r="0.1"/>
<circle fill="none" cx="0" cy="6.1" r="0.1"/>
<circle fill="none" cx="18.9" cy="0" r="0.1"/>
</g></g><rect stroke="none" stroke-width="1" fill="#FFFFFF" x="0" y="0" width="40" height="20" transform="translate(114.9,1.9)"/><path stroke="#000000" fill="none" d="M75,12 C92,28.9 97.9,-5 114.9 11.9"/><text font-family="OpenSansCondensedLight" font-size="14pt" fill="black" transform="translate(114.9,1.9)" text-anchor="middle"><tspan x="20" y="16.3">222</tspan></text><rect stroke-width="0" fill="none" width="68.4" height="21.8" transform="translate(3.3,1.1)"/><text font-family="OpenSansCondensedLight" font-size="14pt" fill="black" transform="translate(3.3,1.1)" text-anchor="middle"><tspan x="34.2" y="16.8">MOD 1</tspan></text><path stroke="#000000" fill="none" transform="translate(3.3,1.1)" d="M 0 0"/></g><g transform="translate(749,178)"><g><g>
<path d="M75,0H0v24h75V0L75,0z" stroke="#000000" stroke-dasharray="none" fill="#FFFFFF"/>
<rect x="3.3" y="1.1" width="68.4" height="21.8" fill="none"/>
<circle fill="none" cx="37.5" cy="0" r="0.1"/>
<circle fill="none" cx="56.1" cy="0" r="0.1"/>
<circle fill="none" cx="75" cy="6.1" r="0.1"/>
<circle fill="none" cx="75" cy="12" r="0.1"/>
<circle fill="none" cx="75" cy="17.9" r="0.1"/>
<circle fill="none" cx="56.1" cy="24" r="0.1"/>
<circle fill="none" cx="37.5" cy="24" r="0.1"/>
<circle fill="none" cx="18.9" cy="24" r="0.1"/>
<circle fill="none" cx="0" cy="17.9" r="0.1"/>
<circle fill="none" cx="0" cy="12" r="0.1"/>
<circle fill="none" cx="0" cy="6.1" r="0.1"/>
<circle fill="none" cx="18.9" cy="0" r="0.1"/>
</g></g><rect stroke="none" stroke-width="1" fill="#FFFFFF" x="0" y="0" width="40" height="20" transform="translate(114.9,1.9)"/><path stroke="#000000" fill="none" d="M75,12 C92,28.9 97.9,-5 114.9 11.9"/><text font-family="OpenSansCondensedLight" font-size="14pt" fill="black" transform="translate(114.9,1.9)" text-anchor="middle"><tspan x="20" y="16.3">224</tspan></text><rect stroke-width="0" fill="none" width="68.4" height="21.8" transform="translate(3.3,1.1)"/><text font-family="OpenSansCondensedLight" font-size="14pt" fill="black" transform="translate(3.3,1.1)" text-anchor="middle"><tspan x="34.2" y="16.8">MOD 2</tspan></text><path stroke="#000000" fill="none" transform="translate(3.3,1.1)" d="M 0 0"/></g><g transform="translate(749,209)"><g><g>
<path d="M75,0H0v24h75V0L75,0z" stroke="#000000" stroke-dasharray="none" fill="#FFFFFF"/>
<rect x="3.3" y="1.1" width="68.4" height="21.8" fill="none"/>
<circle fill="none" cx="37.5" cy="0" r="0.1"/>
<circle fill="none" cx="56.1" cy="0" r="0.1"/>
<circle fill="none" cx="75" cy="6.1" r="0.1"/>
<circle fill="none" cx="75" cy="12" r="0.1"/>
<circle fill="none" cx="75" cy="17.9" r="0.1"/>
<circle fill="none" cx="56.1" cy="24" r="0.1"/>
<circle fill="none" cx="37.5" cy="24" r="0.1"/>
<circle fill="none" cx="18.9" cy="24" r="0.1"/>
<circle fill="none" cx="0" cy="17.9" r="0.1"/>
<circle fill="none" cx="0" cy="12" r="0.1"/>
<circle fill="none" cx="0" cy="6.1" r="0.1"/>
<circle fill="none" cx="18.9" cy="0" r="0.1"/>
</g></g><rect stroke="none" stroke-width="1" fill="#FFFFFF" x="0" y="0" width="40" height="20" transform="translate(114.9,1.9)"/><path stroke="#000000" fill="none" d="M75,12 C92,28.9 97.9,-5 114.9 11.9"/><text font-family="OpenSansCondensedLight" font-size="14pt" fill="black" transform="translate(114.9,1.9)" text-anchor="middle"><tspan x="20" y="16.3">226</tspan></text><rect stroke-width="0" fill="none" width="68.4" height="21.8" transform="translate(3.3,1.1)"/><text font-family="OpenSansCondensedLight" font-size="14pt" fill="black" transform="translate(3.3,1.1)" text-anchor="middle"><tspan x="34.2" y="16.8">MOD 3</tspan></text><path stroke="#000000" fill="none" transform="translate(3.3,1.1)" d="M 0 0"/></g></g><defs/></svg>